# xmcd CD database file
#
# Track frame offsets:
#	150
#	19537
#	44623
#	64217
#	78405
#	90388
#	122221
#	142934
#	158007
#	172921
#	185680
#	201145
#	219648
#	235738
#	252301
#	272239
#	294139
#	312996
#
# Disc length: 4430 seconds
#
# Revision: 0
# Processed by: cddbd v1.5.1PL2 Copyright (c) Steve Scherf et al.
# Submitted via: CDex 1.51
#
DISCID=fa114c12
DTITLE=Various Artist - Hamburger Jazz für New Orleans - CD1
DYEAR=2005
DGENRE=Jazz
TTITLE0=Lillian Boutté - Mama's gone Goodbye
TTITLE1=Swinging Hamburg Jazz Coorporation - Swinging Hamburg Bang
TTITLE2=Trevor Richards' New Orleans Trio - Ain't Misbehavin'
TTITLE3=Joja Wendt - Barrelhouse Boogie
TTITLE4=Münsters Old Merry Tale Jazzband - Benny Moten Stomp
TTITLE5=Schnelsen Stompers - Black And Blue
TTITLE6=Louisiana Syncopators - Black And Tan Fantasy
TTITLE7=Abbi Hübner's Low Down Wizards - Bourbon Street Parade
TTITLE8=Mahogany Jazzband - Chequepoint Stomp
TTITLE9=Jolly Jazz Fools - Clarinet Marmelade
TTITLE10=Trad. Old Merry Tale Jazzband - Come Down To New Orleans
TTITLE11=Kirsten Blötz New Orleans Band - Coquette
TTITLE12=Elke Hendersen - Georgia On My Mind
TTITLE13=Norbert Susemihl's Arlington Annex - High Heels
TTITLE14=Martina Schmoll - I Can't Give You Anything But Love
TTITLE15=Papa Tom Lamentation Jazzband - In A Sweet Bye And Bye
TTITLE16=Eine Kleine Jazzmusik - Jubilee Boogie
TTITLE17=Jazz O'Maniacs - King Of The Zulus
EXTD=YEAR: 2005
EXTT0=
EXTT1=
EXTT2=
EXTT3=
EXTT4=
EXTT5=
EXTT6=
EXTT7=
EXTT8=
EXTT9=
EXTT10=
EXTT11=
EXTT12=
EXTT13=
EXTT14=
EXTT15=
EXTT16=
EXTT17=
PLAYORDER=
